<svg xmlns="http://www.w3.org/2000/svg" xmlns:xlink="http://www.w3.org/1999/xlink" contentStyleType="text/css" data-diagram-type="DESCRIPTION" height="1324px" preserveAspectRatio="none" style="width:735px;height:1324px;background:#FFFFFF;" version="1.1" viewBox="0 0 735 1324" width="735px" zoomAndPan="magnify"><defs/><g><!--cluster Guarantor--><g class="cluster" data-entity="Guarantor" data-source-line="7" data-uid="ent0005" id="cluster_Guarantor"><rect fill="none" height="244" rx="2.5" ry="2.5" style="stroke:#181818;stroke-width:1;" width="247.29" x="195.28" y="384.84"/><text fill="#000000" font-family="sans-serif" font-size="14" font-weight="bold" lengthAdjust="spacing" textLength="80.4385" x="278.7058" y="399.8351">Guarantor</text></g><!--cluster Lecturer--><g class="cluster" data-entity="Lecturer" data-source-line="13" data-uid="ent0009" id="cluster_Lecturer"><rect fill="none" height="250" rx="2.5" ry="2.5" style="stroke:#181818;stroke-width:1;" width="552.36" x="177.28" y="652.84"/><text fill="#000000" font-family="sans-serif" font-size="14" font-weight="bold" lengthAdjust="spacing" textLength="66.6777" x="420.1211" y="667.8351">Lecturer</text></g><!--cluster Student--><g class="cluster" data-entity="Student" data-source-line="20" data-uid="ent0014" id="cluster_Student"><rect fill="none" height="313" rx="2.5" ry="2.5" style="stroke:#181818;stroke-width:1;" width="259.7" x="189.08" y="926.84"/><text fill="#000000" font-family="sans-serif" font-size="14" font-weight="bold" lengthAdjust="spacing" textLength="62.918" x="287.471" y="941.8351">Student</text></g><!--entity Add Course Lecturer--><g class="entity" data-entity="Add Course Lecturer" data-source-line="8" data-uid="ent0006" id="entity_Add Course Lecturer"><ellipse cx="318.9286" cy="592.8417" fill="#F1F1F1" rx="85.6086" ry="19.5217" style="stroke:#181818;stroke-width:0.5;"/><text fill="#000000" font-family="sans-serif" font-size="14" lengthAdjust="spacing" textLength="143.7256" x="247.0658" y="597.4902">Add Course Lecturer</text></g><!--entity Approve Course Enrollment--><g class="entity" data-entity="Approve Course Enrollment" data-source-line="9" data-uid="ent0007" id="entity_Approve Course Enrollment"><ellipse cx="318.927" cy="514.8394" fill="#F1F1F1" rx="107.647" ry="23.9294" style="stroke:#181818;stroke-width:0.5;"/><text fill="#000000" font-family="sans-serif" font-size="14" lengthAdjust="spacing" textLength="192.7803" x="222.5368" y="519.4878">Approve Course Enrollment</text></g><!--entity Set Course Details--><g class="entity" data-entity="Set Course Details" data-source-line="10" data-uid="ent0008" id="entity_Set Course Details"><ellipse cx="318.9277" cy="437.8435" fill="#F1F1F1" rx="79.4177" ry="18.2835" style="stroke:#181818;stroke-width:0.5;"/><text fill="#000000" font-family="sans-serif" font-size="14" lengthAdjust="spacing" textLength="129.3018" x="254.2768" y="442.492">Set Course Details</text></g><!--entity View Course Students Overviews--><g class="entity" data-entity="View Course Students Overviews" data-source-line="14" data-uid="ent0010" id="entity_View Course Students Overviews"><ellipse cx="318.9293" cy="858.8399" fill="#F1F1F1" rx="125.6493" ry="27.5299" style="stroke:#181818;stroke-width:0.5;"/><text fill="#000000" font-family="sans-serif" font-size="14" lengthAdjust="spacing" textLength="231.3691" x="203.2447" y="863.4883">View Course Students Overviews</text></g><!--entity View Students Evaluations--><g class="entity" data-entity="View Students Evaluations" data-source-line="15" data-uid="ent0011" id="entity_View Students Evaluations"><ellipse cx="609.1124" cy="858.8365" fill="#F1F1F1" rx="104.5324" ry="23.3065" style="stroke:#181818;stroke-width:0.5;"/><text fill="#000000" font-family="sans-serif" font-size="14" lengthAdjust="spacing" textLength="185.999" x="516.1129" y="863.4849">View Students Evaluations</text></g><!--entity Evaluate Student--><g class="entity" data-entity="Evaluate Student" data-source-line="16" data-uid="ent0012" id="entity_Evaluate Student"><ellipse cx="318.9317" cy="778.8443" fill="#F1F1F1" rx="75.8217" ry="17.5643" style="stroke:#181818;stroke-width:0.5;"/><text fill="#000000" font-family="sans-serif" font-size="14" lengthAdjust="spacing" textLength="120.7158" x="258.5738" y="783.4928">Evaluate Student</text></g><!--entity Create Course Term--><g class="entity" data-entity="Create Course Term" data-source-line="17" data-uid="ent0013" id="entity_Create Course Term"><ellipse cx="318.9261" cy="706.8392" fill="#F1F1F1" rx="84.4961" ry="19.2992" style="stroke:#181818;stroke-width:0.5;"/><text fill="#000000" font-family="sans-serif" font-size="14" lengthAdjust="spacing" textLength="141.1621" x="248.345" y="711.4877">Create Course Term</text></g><!--entity Registers Term--><g class="entity" data-entity="Registers Term" data-source-line="21" data-uid="ent0015" id="entity_Registers Term"><ellipse cx="318.9271" cy="1207.8354" fill="#F1F1F1" rx="70.0771" ry="16.4154" style="stroke:#181818;stroke-width:0.5;"/><text fill="#000000" font-family="sans-serif" font-size="14" lengthAdjust="spacing" textLength="106.5723" x="265.641" y="1212.4839">Registers Term</text></g><!--entity View Course Term Evaluation--><g class="entity" data-entity="View Course Term Evaluation" data-source-line="22" data-uid="ent0016" id="entity_View Course Term Evaluation"><ellipse cx="318.9315" cy="1130.8403" fill="#F1F1F1" rx="113.8515" ry="25.1703" style="stroke:#181818;stroke-width:0.5;"/><text fill="#000000" font-family="sans-serif" font-size="14" lengthAdjust="spacing" textLength="206.1855" x="215.8387" y="1135.4887">View Course Term Evaluation</text></g><!--entity View Schedule--><g class="entity" data-entity="View Schedule" data-source-line="23" data-uid="ent0017" id="entity_View Schedule"><ellipse cx="318.9283" cy="1054.8397" fill="#F1F1F1" rx="68.3983" ry="16.0797" style="stroke:#181818;stroke-width:0.5;"/><text fill="#000000" font-family="sans-serif" font-size="14" lengthAdjust="spacing" textLength="102.3135" x="267.7716" y="1059.4881">View Schedule</text></g><!--entity View Courses Overview--><g class="entity" data-entity="View Courses Overview" data-source-line="24" data-uid="ent0018" id="entity_View Courses Overview"><ellipse cx="318.9339" cy="982.8388" fill="#F1F1F1" rx="94.7939" ry="21.3588" style="stroke:#181818;stroke-width:0.5;"/><text fill="#000000" font-family="sans-serif" font-size="14" lengthAdjust="spacing" textLength="164.5137" x="236.677" y="987.4872">View Courses Overview</text></g><!--entity UU--><g class="entity" data-entity="UU" data-source-line="3" data-uid="ent0002" id="entity_UU"><ellipse cx="69.6392" cy="1251.19" fill="#F1F1F1" rx="8" ry="8" style="stroke:#181818;stroke-width:0.5;"/><path d="M69.6392,1259.19 L69.6392,1286.19 M56.6392,1267.19 L82.6392,1267.19 M69.6392,1286.19 L56.6392,1301.19 M69.6392,1286.19 L82.6392,1301.19" fill="none" style="stroke:#181818;stroke-width:0.5;"/><text fill="#000000" font-family="sans-serif" font-size="14" lengthAdjust="spacing" textLength="127.2783" x="6" y="1315.6851">Unregistered User</text></g><!--entity RU--><g class="entity" data-entity="RU" data-source-line="4" data-uid="ent0003" id="entity_RU"><ellipse cx="69.6383" cy="713.19" fill="#F1F1F1" rx="8" ry="8" style="stroke:#181818;stroke-width:0.5;"/><path d="M69.6383,721.19 L69.6383,748.19 M56.6383,729.19 L82.6383,729.19 M69.6383,748.19 L56.6383,763.19 M69.6383,748.19 L82.6383,763.19" fill="none" style="stroke:#181818;stroke-width:0.5;"/><text fill="#000000" font-family="sans-serif" font-size="14" lengthAdjust="spacing" textLength="103.5166" x="17.88" y="777.6851">Registred User</text></g><!--entity A--><g class="entity" data-entity="A" data-source-line="5" data-uid="ent0004" id="entity_A"><ellipse cx="69.6413" cy="93.19" fill="#F1F1F1" rx="8" ry="8" style="stroke:#181818;stroke-width:0.5;"/><path d="M69.6413,101.19 L69.6413,128.19 M56.6413,109.19 L82.6413,109.19 M69.6413,128.19 L56.6413,143.19 M69.6413,128.19 L82.6413,143.19" fill="none" style="stroke:#181818;stroke-width:0.5;"/><text fill="#000000" font-family="sans-serif" font-size="14" lengthAdjust="spacing" textLength="95.6826" x="21.8" y="157.6851">Administrator</text></g><!--entity Manage Users--><g class="entity" data-entity="Manage Users" data-source-line="28" data-uid="ent0019" id="entity_Manage Users"><ellipse cx="318.9329" cy="21.8426" fill="#F1F1F1" rx="67.2129" ry="15.8426" style="stroke:#181818;stroke-width:0.5;"/><text fill="#000000" font-family="sans-serif" font-size="14" lengthAdjust="spacing" textLength="99.2646" x="269.3006" y="26.491">Manage Users</text></g><!--entity View Overviews--><g class="entity" data-entity="View Overviews" data-source-line="29" data-uid="ent0021" id="entity_View Overviews"><ellipse cx="318.9341" cy="89.8448" fill="#F1F1F1" rx="71.9241" ry="16.7848" style="stroke:#181818;stroke-width:0.5;"/><text fill="#000000" font-family="sans-serif" font-size="14" lengthAdjust="spacing" textLength="111.1865" x="263.3409" y="94.4933">View Overviews</text></g><!--entity Add Room--><g class="entity" data-entity="Add Room" data-source-line="30" data-uid="ent0023" id="entity_Add Room"><ellipse cx="318.9316" cy="155.8436" fill="#F1F1F1" rx="54.1216" ry="14.5236" style="stroke:#181818;stroke-width:0.5;"/><text fill="#000000" font-family="sans-serif" font-size="14" lengthAdjust="spacing" textLength="72.2969" x="282.7832" y="160.4921">Add Room</text></g><!--entity Approve Course--><g class="entity" data-entity="Approve Course" data-source-line="31" data-uid="ent0025" id="entity_Approve Course"><ellipse cx="318.9312" cy="221.8422" fill="#F1F1F1" rx="72.2112" ry="16.8422" style="stroke:#181818;stroke-width:0.5;"/><text fill="#000000" font-family="sans-serif" font-size="14" lengthAdjust="spacing" textLength="111.8975" x="262.9824" y="226.4907">Approve Course</text></g><!--entity Edit Profile--><g class="entity" data-entity="Edit Profile" data-source-line="34" data-uid="ent0027" id="entity_Edit Profile"><ellipse cx="318.9301" cy="287.8436" fill="#F1F1F1" rx="56.4901" ry="14.5236" style="stroke:#181818;stroke-width:0.5;"/><text fill="#000000" font-family="sans-serif" font-size="14" lengthAdjust="spacing" textLength="75.6465" x="281.1069" y="292.4921">Edit Profile</text></g><!--entity Create Course--><g class="entity" data-entity="Create Course" data-source-line="35" data-uid="ent0029" id="entity_Create Course"><ellipse cx="318.9269" cy="352.8414" fill="#F1F1F1" rx="67.5569" ry="15.9114" style="stroke:#181818;stroke-width:0.5;"/><text fill="#000000" font-family="sans-serif" font-size="14" lengthAdjust="spacing" textLength="100.1533" x="268.8503" y="357.4898">Create Course</text></g><!--entity View Available Courses--><g class="entity" data-entity="View Available Courses" data-source-line="55" data-uid="ent0042" id="entity_View Available Courses"><ellipse cx="318.9328" cy="1280.8446" fill="#F1F1F1" rx="94.0228" ry="21.2046" style="stroke:#181818;stroke-width:0.5;"/><text fill="#000000" font-family="sans-serif" font-size="14" lengthAdjust="spacing" textLength="162.791" x="237.5373" y="1285.493">View Available Courses</text></g><!--entity View Public Content--><g class="entity" data-entity="View Public Content" data-source-line="56" data-uid="ent0044" id="entity_View Public Content"><ellipse cx="609.1118" cy="1280.8404" fill="#F1F1F1" rx="83.9018" ry="19.1804" style="stroke:#181818;stroke-width:0.5;"/><text fill="#000000" font-family="sans-serif" font-size="14" lengthAdjust="spacing" textLength="139.7881" x="539.2178" y="1285.4888">View Public Content</text></g><!--link A to Manage Users--><g class="link" data-entity-1="A" data-entity-2="Manage Users" data-source-line="28" data-uid="lnk20" id="link_A_Manage Users"><path d="M117.96,85.47 C133.59,74.59 151.53,63.57 169.28,55.84 C198.04,43.31 226.1298,36.1897 254.3398,30.9797" fill="none" id="A-to-Manage Users" style="stroke:#181818;stroke-width:1;"/><polygon fill="#181818" points="260.24,29.89,250.6632,27.5911,255.3232,30.7981,252.1161,35.458,260.24,29.89" style="stroke:#181818;stroke-width:1;"/></g><!--link A to View Overviews--><g class="link" data-entity-1="A" data-entity-2="View Overviews" data-source-line="29" data-uid="lnk22" id="link_A_View Overviews"><path d="M117.73,116.56 C156.83,111.34 206.8129,104.6746 249.6229,98.9546" fill="none" id="A-to-View Overviews" style="stroke:#181818;stroke-width:1;"/><polygon fill="#181818" points="255.57,98.16,246.1195,95.3872,250.614,98.8222,247.179,103.3167,255.57,98.16" style="stroke:#181818;stroke-width:1;"/></g><!--link A to Add Room--><g class="link" data-entity-1="A" data-entity-2="Add Room" data-source-line="30" data-uid="lnk24" id="link_A_Add Room"><path d="M117.73,129.13 C161.32,134.94 219.8727,142.7565 263.7927,148.6165" fill="none" id="A-to-Add Room" style="stroke:#181818;stroke-width:1;"/><polygon fill="#181818" points="269.74,149.41,261.3481,144.2549,264.7839,148.7487,260.29,152.1846,269.74,149.41" style="stroke:#181818;stroke-width:1;"/></g><!--link A to Approve Course--><g class="link" data-entity-1="A" data-entity-2="Approve Course" data-source-line="31" data-uid="lnk26" id="link_A_Approve Course"><path d="M117.85,158.89 C133.54,169.49 151.55,180.27 169.28,187.84 C196.91,199.65 223.3676,206.5387 250.8176,211.8087" fill="none" id="A-to-Approve Course" style="stroke:#181818;stroke-width:1;"/><polygon fill="#181818" points="256.71,212.94,248.6256,207.3149,251.7997,211.9973,247.1172,215.1714,256.71,212.94" style="stroke:#181818;stroke-width:1;"/></g><!--link RU to Edit Profile--><g class="link" data-entity-1="RU" data-entity-2="Edit Profile" data-source-line="34" data-uid="lnk28" id="link_RU_Edit Profile"><path d="M74.41,704.25 C84.36,610.36 114.43,373.76 169.28,319.84 C193.56,295.97 225.1322,288.4128 256.4122,286.4128" fill="none" id="RU-to-Edit Profile" style="stroke:#181818;stroke-width:1;"/><polygon fill="#181818" points="262.4,286.03,253.1631,282.6124,257.4102,286.349,253.6736,290.5961,262.4,286.03" style="stroke:#181818;stroke-width:1;"/></g><!--link RU to Create Course--><g class="link" data-entity-1="RU" data-entity-2="Create Course" data-source-line="35" data-uid="lnk30" id="link_RU_Create Course"><path d="M70.88,704.22 C73.42,634.8 88.69,488.34 169.28,403.84 C192.53,379.46 222.088,368.0095 252.508,361.3695" fill="none" id="RU-to-Create Course" style="stroke:#181818;stroke-width:1;"/><polygon fill="#181818" points="258.37,360.09,248.724,358.1013,253.485,361.1563,250.4301,365.9173,258.37,360.09" style="stroke:#181818;stroke-width:1;"/></g><!--link RU to Add Course Lecturer--><g class="link" data-entity-1="RU" data-entity-2="Add Course Lecturer" data-source-line="38" data-uid="lnk31" id="link_RU_Add Course Lecturer"><path d="M121.44,704.28 C136.55,693.36 153.33,681.76 169.28,671.84 C206.26,648.85 245.1778,628.532 275.7378,613.332" fill="none" id="RU-to-Add Course Lecturer" style="stroke:#181818;stroke-width:1;"/><polygon fill="#181818" points="281.11,610.66,271.2704,611.0866,276.6332,612.8867,274.8331,618.2495,281.11,610.66" style="stroke:#181818;stroke-width:1;"/></g><!--link RU to Approve Course Enrollment--><g class="link" data-entity-1="RU" data-entity-2="Approve Course Enrollment" data-source-line="39" data-uid="lnk32" id="link_RU_Approve Course Enrollment"><path d="M80.91,704.3 C94.25,661.72 121.65,594.14 169.28,555.84 C185.76,542.59 200.4693,535.3214 220.8993,529.2414" fill="none" id="RU-to-Approve Course Enrollment" style="stroke:#181818;stroke-width:1;"/><polygon fill="#181818" points="226.65,527.53,216.8829,526.2633,221.8577,528.9562,219.1648,533.931,226.65,527.53" style="stroke:#181818;stroke-width:1;"/></g><!--link RU to Create Course Term--><g class="link" data-entity-1="RU" data-entity-2="Create Course Term" data-source-line="40" data-uid="lnk33" id="link_RU_Create Course Term"><path d="M121.88,735.38 C157.95,730.13 200.7825,723.8935 240.6625,718.0935" fill="none" id="RU-to-Create Course Term" style="stroke:#181818;stroke-width:1;"/><polygon fill="#181818" points="246.6,717.23,237.118,714.5669,241.6521,717.9496,238.2694,722.4837,246.6,717.23" style="stroke:#181818;stroke-width:1;"/></g><!--link RU to Set Course Details--><g class="link" data-entity-1="RU" data-entity-2="Set Course Details" data-source-line="41" data-uid="lnk34" id="link_RU_Set Course Details"><path d="M73.56,704.48 C80.14,645.86 101.35,534.44 169.28,473.84 C188.99,456.25 209.9469,448.0277 235.3969,443.1577" fill="none" id="RU-to-Set Course Details" style="stroke:#181818;stroke-width:1;"/><polygon fill="#181818" points="241.29,442.03,231.6986,439.7928,236.3791,442.9697,233.2022,447.6502,241.29,442.03" style="stroke:#181818;stroke-width:1;"/></g><!--link RU to View Course Students Overviews--><g class="link" data-entity-1="RU" data-entity-2="View Course Students Overviews" data-source-line="44" data-uid="lnk35" id="link_RU_View Course Students Overviews"><path d="M117.29,781.23 C133.09,792.9 151.31,804.96 169.28,813.84 C189.22,823.7 206.0142,830.1093 227.3842,836.6693" fill="none" id="RU-to-View Course Students Overviews" style="stroke:#181818;stroke-width:1;"/><polygon fill="#181818" points="233.12,838.43,225.6901,831.965,228.3401,836.9627,223.3424,839.6128,233.12,838.43" style="stroke:#181818;stroke-width:1;"/></g><!--link View Course Students Overviews to View Students Evaluations--><g class="link" data-entity-1="View Course Students Overviews" data-entity-2="View Students Evaluations" data-source-line="45" data-uid="lnk36" id="link_View Course Students Overviews_View Students Evaluations"><path d="M445.07,858.84 C464.82,858.84 479.05,858.84 498.24,858.84" fill="none" id="View Course Students Overviews-to-View Students Evaluations" style="stroke:#181818;stroke-width:1;"/><polygon fill="#181818" points="504.24,858.84,495.24,854.84,499.24,858.84,495.24,862.84,504.24,858.84" style="stroke:#181818;stroke-width:1;"/></g><!--link RU to Evaluate Student--><g class="link" data-entity-1="RU" data-entity-2="Evaluate Student" data-source-line="46" data-uid="lnk37" id="link_RU_Evaluate Student"><path d="M121.88,750.3 C160.22,755.88 206.9525,762.6861 248.0525,768.6661" fill="none" id="RU-to-Evaluate Student" style="stroke:#181818;stroke-width:1;"/><polygon fill="#181818" points="253.99,769.53,245.6597,764.2758,249.0421,768.8101,244.5078,772.1925,253.99,769.53" style="stroke:#181818;stroke-width:1;"/></g><!--link RU to Registers Term--><g class="link" data-entity-1="RU" data-entity-2="Registers Term" data-source-line="49" data-uid="lnk38" id="link_RU_Registers Term"><path d="M74.27,781.41 C84,876.48 113.78,1118.35 169.28,1173.84 C189.96,1194.53 214.5425,1202.898 242.5525,1206.628" fill="none" id="RU-to-Registers Term" style="stroke:#181818;stroke-width:1;"/><polygon fill="#181818" points="248.5,1207.42,240.1068,1202.267,243.5438,1206.76,239.0507,1210.197,248.5,1207.42" style="stroke:#181818;stroke-width:1;"/></g><!--link RU to View Course Term Evaluation--><g class="link" data-entity-1="RU" data-entity-2="View Course Term Evaluation" data-source-line="50" data-uid="lnk39" id="link_RU_View Course Term Evaluation"><path d="M70.14,781.3 C71.38,852.26 84.49,1004.25 169.28,1088.84 C183.04,1102.57 195.2487,1109.9706 213.8287,1116.2806" fill="none" id="RU-to-View Course Term Evaluation" style="stroke:#181818;stroke-width:1;"/><polygon fill="#181818" points="219.51,1118.21,212.2743,1111.5283,214.7756,1116.6021,209.7017,1119.1034,219.51,1118.21" style="stroke:#181818;stroke-width:1;"/></g><!--link RU to View Schedule--><g class="link" data-entity-1="RU" data-entity-2="View Schedule" data-source-line="51" data-uid="lnk40" id="link_RU_View Schedule"><path d="M72.82,781.27 C78.4,841.83 98.31,959 169.28,1021.84 C191.35,1041.38 216.4414,1049.3763 244.4514,1053.0663" fill="none" id="RU-to-View Schedule" style="stroke:#181818;stroke-width:1;"/><polygon fill="#181818" points="250.4,1053.85,241.9995,1048.7088,245.4428,1053.1969,240.9547,1056.6402,250.4,1053.85" style="stroke:#181818;stroke-width:1;"/></g><!--link RU to View Courses Overview--><g class="link" data-entity-1="RU" data-entity-2="View Courses Overview" data-source-line="52" data-uid="lnk41" id="link_RU_View Courses Overview"><path d="M87.24,781.36 C103.9,816.48 132.36,868.03 169.28,902.84 C198.06,929.98 232.3284,948.3558 263.4884,961.9158" fill="none" id="RU-to-View Courses Overview" style="stroke:#181818;stroke-width:1;"/><polygon fill="#181818" points="268.99,964.31,262.3337,957.051,264.4053,962.3149,259.1414,964.3865,268.99,964.31" style="stroke:#181818;stroke-width:1;"/></g><!--link UU to View Available Courses--><g class="link" data-entity-1="UU" data-entity-2="View Available Courses" data-source-line="55" data-uid="lnk43" id="link_UU_View Available Courses"><path d="M133.68,1280.84 C161.3,1280.84 188.27,1280.84 218.65,1280.84" fill="none" id="UU-to-View Available Courses" style="stroke:#181818;stroke-width:1;"/><polygon fill="#181818" points="224.65,1280.84,215.65,1276.84,219.65,1280.84,215.65,1284.84,224.65,1280.84" style="stroke:#181818;stroke-width:1;"/></g><!--link View Available Courses to View Public Content--><g class="link" data-entity-1="View Available Courses" data-entity-2="View Public Content" data-source-line="56" data-uid="lnk45" id="link_View Available Courses_View Public Content"><path d="M413.09,1280.84 C449.11,1280.84 483.99,1280.84 518.99,1280.84" fill="none" id="View Available Courses-to-View Public Content" style="stroke:#181818;stroke-width:1;"/><polygon fill="#181818" points="524.99,1280.84,515.99,1276.84,519.99,1280.84,515.99,1284.84,524.99,1280.84" style="stroke:#181818;stroke-width:1;"/></g><!--SRC=[ZLH1Ri8m4Bpd5Iika4F53of55FNIgYWqlPja2POS6ssSz53rxxLJszWGgdBBp7XtTdU4mAC6hO1uUzBGSC9QSoMpZDLQ4ImgITZoNYDX0rMFj03MGrLvlfpOX2m3MJGTbvPcvdFYYYop7PXi1SBYUM34vCHzPM1-gw9fOAC6wX5UZ6uWfDmnvpEf4JsxbQI4w51gn-zHU-u9DUEYpxFlf9il69fzSFpqR_PwQ4on7jv6fD4GVHw90hiTcHYOtP3d7H8gE7X3Q45N_HsfkxRZzC5DwVRSE_MDHGj71X9_zGcRGU3jgyj0K__r4fAZm7AT5V3my0YhLoPPYzCPpMmEd2f5At6mFLEfL7S1aklaKwCq6gPHMVsAjmtNi2DrvDQnHvEDcGfs4bCbPCHQjPZNturA4FoTcDc-qUuzFnSiRyutllRs_sJT5qMLxiSlh7GsXTwc0wzTpYLkReBPu2N2D7ypDU8OJiwCgvk_5kCFiYf-N8nct-mW_7dCrFU8wDLkE0XU6qPgkueV]--></g></svg>